# xmcd
#
# Track frame offsets:
# 150
# 22282
# 38196
# 53742
# 74947
# 101008
# 120050
# 137752
# 147869
# 171407
# 185558
# 200913
# 216969
# 233822
# 254399
# 272349
# 294462
# 309960
#
# Disc length: 4386 seconds
#
#
# Revision: 0
# Processed by: cddbd v1.5.2PL0 Copyright (c) Steve Scherf et al.
# Submitted via: FreeRIP 2.96 
#
DISCID=1a112012
DTITLE=Various Artist - Kuschel Jazz Vol. 7 - CD 1
DYEAR=2010
DGENRE=Jazz
TTITLE0=Jamie Cullum - High And Dry
TTITLE1=Melody Gardot - Baby I'm A Fool
TTITLE2=Till Brönner -/ Your Way To Say Goodbye
TTITLE3=Eva Cassidy - Fields Of Gold
TTITLE4=Justin Timberlake - (Another Song) All Over Again
TTITLE5=Katie Melua - The Closest Thing To Crazy
TTITLE6=Viktoria Tolstoy - Upside Out
TTITLE7=Ingrid Michaelson - The Way I Am
TTITLE8=Teitur - Don't Want You To Wake Up
TTITLE9=Kings Of Convenience - Mrs. Cold
TTITLE10=Suzanne Vega - Pornographer's Dream
TTITLE11=Graziella Schazad - Take On Me
TTITLE12=Goldfrapp - Lovely Head
TTITLE13=Zero 7 - In The Waiting Line
TTITLE14=Smoke City - Underwater Love
TTITLE15=Kinobe - Slip Into Something More Comfortable
TTITLE16=Morcheeba - Undress Me Now
TTITLE17=Jazzamor - Back To The Moon
EXTD=
EXTT0=
EXTT1=
EXTT2=
EXTT3=
EXTT4=
EXTT5=
EXTT6=
EXTT7=
EXTT8=
EXTT9=
EXTT10=
EXTT11=
EXTT12=
EXTT13=
EXTT14=
EXTT15=
EXTT16=
EXTT17=
PLAYORDER=
